<svg width="512" height="512" viewBox="0 0 512 512" xmlns="http://www.w3.org/2000/svg">
  <defs>
    <linearGradient id="grad1" x1="0%" y1="0%" x2="100%" y2="100%">
      <stop offset="0%" style="stop-color:#3b82f6;stop-opacity:1" />
      <stop offset="100%" style="stop-color:#1e40af;stop-opacity:1" />
    </linearGradient>
  </defs>
  
  <!-- Background circle -->
  <circle cx="256" cy="256" r="240" fill="url(#grad1)" stroke="#1e40af" stroke-width="8"/>
  
  <!-- Clock face -->
  <circle cx="256" cy="256" r="180" fill="#ffffff" stroke="#3b82f6" stroke-width="4"/>
  
  <!-- Clock marks -->
  <g stroke="#3b82f6" stroke-width="3">
    <!-- 12 -->
    <line x1="256" y1="96" x2="256" y2="116" stroke-width="4"/>
    <!-- 3 -->
    <line x1="416" y1="256" x2="396" y2="256" stroke-width="4"/>
    <!-- 6 -->
    <line x1="256" y1="416" x2="256" y2="396" stroke-width="4"/>
    <!-- 9 -->
    <line x1="96" y1="256" x2="116" y2="256" stroke-width="4"/>
    
    <!-- Other marks -->
    <line x1="358" y1="154" x2="346" y2="166"/>
    <line x1="358" y1="358" x2="346" y2="346"/>
    <line x1="154" y1="358" x2="166" y2="346"/>
    <line x1="154" y1="154" x2="166" y2="166"/>
  </g>
  
  <!-- Clock hands -->
  <g stroke="#1e40af" stroke-linecap="round">
    <!-- Hour hand pointing to 10 -->
    <line x1="256" y1="256" x2="220" y2="180" stroke-width="8"/>
    <!-- Minute hand pointing to 2 -->
    <line x1="256" y1="256" x2="330" y2="160" stroke-width="6"/>
  </g>
  
  <!-- Center dot -->
  <circle cx="256" cy="256" r="12" fill="#1e40af"/>
  
  <!-- Study elements -->
  <g fill="#3b82f6" opacity="0.8">
    <!-- Book icon -->
    <rect x="180" y="320" width="40" height="30" rx="4"/>
    <rect x="184" y="324" width="32" height="22" fill="#ffffff"/>
    <line x1="188" y1="330" x2="212" y2="330" stroke="#3b82f6" stroke-width="1"/>
    <line x1="188" y1="335" x2="208" y2="335" stroke="#3b82f6" stroke-width="1"/>
    
    <!-- Checkmark -->
    <path d="M300 340 L310 350 L330 320" stroke="#22c55e" stroke-width="4" fill="none" stroke-linecap="round"/>
  </g>
</svg>